<svg width="18" height="18" viewBox="0 0 18 18" fill="none" xmlns="http://www.w3.org/2000/svg">
<rect x="1" y="1" width="16" height="16" rx="8" fill="#F8F8F8"/>
<path d="M14.318 14.9777C13.6969 14.1554 12.8933 13.4885 11.9706 13.0296C11.0478 12.5707 10.0311 12.3323 9.00057 12.3333C7.97002 12.3323 6.95332 12.5707 6.03058 13.0296C5.10784 13.4885 4.30427 14.1554 3.68316 14.9777M14.3171 14.9777C15.5291 13.8997 16.3848 12.4786 16.7706 10.9031C17.1565 9.32754 17.0543 7.67192 16.4775 6.1558C15.9008 4.63968 14.8769 3.33469 13.5414 2.41389C12.206 1.49309 10.6222 1 9.00013 1C7.37802 1 5.79424 1.49309 4.45881 2.41389C3.12339 3.33469 2.09942 4.63968 1.52271 6.1558C0.945992 7.67192 0.843778 9.32754 1.22962 10.9031C1.61547 12.4786 2.47114 13.8997 3.68316 14.9777M14.3171 14.9777C12.854 16.2828 10.9612 17.0028 9.00057 17C7.03968 17.003 5.1465 16.283 3.68316 14.9777M11.6673 6.99983C11.6673 7.70709 11.3863 8.38538 10.8862 8.88548C10.3861 9.38559 9.70783 9.66654 9.00057 9.66654C8.29332 9.66654 7.61503 9.38559 7.11492 8.88548C6.61482 8.38538 6.33386 7.70709 6.33386 6.99983C6.33386 6.29258 6.61482 5.61429 7.11492 5.11418C7.61503 4.61408 8.29332 4.33312 9.00057 4.33312C9.70783 4.33312 10.3861 4.61408 10.8862 5.11418C11.3863 5.61429 11.6673 6.29258 11.6673 6.99983V6.99983Z" stroke="#197278" stroke-linecap="round" stroke-linejoin="round"/>
</svg>
