<svg width="341" height="379" viewBox="0 0 341 379" fill="none" xmlns="http://www.w3.org/2000/svg">
<rect width="341" height="379" fill="white"/>
<rect x="105.5" y="64" width="23" height="262" stroke="#197278"/>
<path d="M106.701 63.5L95.2428 52.5H117.293L128.293 63.5H106.701Z" stroke="#197278"/>
<path d="M221.5 98C221.5 157 227.5 157.5 194.093 157.5C186.626 157.5 179.845 157.5 167.667 157.5H128" stroke="#197278"/>
<path d="M128 64.5V96" stroke="white" stroke-width="2"/>
<path d="M128.5 64C129 64 129 64.5 131 65.5C133.899 66.9494 141.553 66.5 150 66.5C158.447 66.5 175.783 66.5 192 66.5C196.5 66.5 201.5 66.5 206.5 66.5C221.5 66.5 254 70 258 92" stroke="#197278"/>
<path d="M104.9 85C105 85 110 89.5 114.5 93C118.223 95.896 120.5 96 133.5 96C141.984 96 154.211 96 170.5 96C186.789 96 190.695 96 198.5 96C236.132 96 236 101.5 236 135C236 168.5 236 168.5 197.98 168.5C190.075 168.5 182.895 168.5 170 168.5H128" stroke="#197278"/>
<rect x="104" y="87.5" width="1" height="2" fill="white"/>
<path d="M104.504 325.395L105.499 63.7126L94.4956 53.1675L93.5009 315.677L104.504 325.395Z" fill="white" stroke="#197278"/>
<path d="M105.5 63.5C106 63.5 108.5 66 113.5 70.5C120.6 76.8903 121.5 77 133.5 76.856C143.312 76.7383 161.159 76.856 180 76.856C198.841 76.856 203.972 76.856 213 76.856C260.103 76.856 260 76.856 260 132.178C260 187.5 259.655 187.5 212.552 187.5C203.407 187.5 194.496 187.5 179.58 187.5H128" stroke="#197278"/>
<path d="M95.5 53H117.252L128.6 64.5H107.7L95.5 53Z" fill="white"/>
<path d="M95 53.5L105 63.5V67.5H95V53.5Z" fill="white"/>
<path d="M103 61.5917L106.1 64.5L106 85.2283L103 82.5V61.5917Z" fill="white"/>
<path d="M95 69.5L104.9 83.5L104 324.3L95 316.3V69.5Z" fill="white"/>
</svg>
