<svg width="61" height="58" viewBox="0 0 61 58" fill="none" xmlns="http://www.w3.org/2000/svg">
<path d="M24.637 29C24.637 42.8287 11.7829 40.8148 11.7829 58H22.4947C22.4947 43.9475 35.3488 45.939 35.3488 29H24.637Z" fill="#EDDDD4"/>
<path d="M37.538 1.90735e-06C37.538 13.8287 24.6839 11.8148 24.6839 29H35.3957C35.3957 14.9475 48.2498 16.939 48.2498 1.90735e-06H37.538Z" fill="#EDDDD4"/>
<path d="M49.321 14.457C49.321 28.2857 36.4669 26.2718 36.4669 43.457H47.1786C47.1786 29.4045 60.0327 31.396 60.0327 14.457H49.321Z" fill="#197278"/>
<path d="M12.8541 14.457C12.8541 28.2857 0 26.2718 0 43.457H10.7118C10.7118 29.4045 23.5658 31.396 23.5658 14.457H12.8541Z" fill="#197278"/>
</svg>
